<mxfile host="app.diagrams.net" modified="2023-04-19T18:35:21.189Z" agent="Mozilla/5.0 (Windows NT 10.0; Win64; x64) AppleWebKit/537.36 (KHTML, like Gecko) Chrome/112.0.0.0 Safari/537.36" etag="p0ZHoo6aj1NjBaD_3pdo" version="21.2.0" type="device">
  <diagram name="Page-1" id="3r2UWCaxu2KROIC60uED">
    <mxGraphModel dx="1050" dy="515" grid="1" gridSize="10" guides="1" tooltips="1" connect="1" arrows="1" fold="1" page="1" pageScale="1" pageWidth="850" pageHeight="1100" math="0" shadow="0">
      <root>
        <mxCell id="0" />
        <mxCell id="1" parent="0" />
        <mxCell id="-eAwGdb72ULK-F6omRw_-13" value="" style="rounded=1;whiteSpace=wrap;html=1;direction=south;" vertex="1" parent="1">
          <mxGeometry x="240" y="50" width="380" height="850" as="geometry" />
        </mxCell>
        <mxCell id="-eAwGdb72ULK-F6omRw_-14" value="Authentication" style="ellipse;whiteSpace=wrap;html=1;" vertex="1" parent="1">
          <mxGeometry x="365" y="100" width="120" height="50" as="geometry" />
        </mxCell>
        <mxCell id="-eAwGdb72ULK-F6omRw_-15" value="Create Profile" style="ellipse;whiteSpace=wrap;html=1;" vertex="1" parent="1">
          <mxGeometry x="365" y="170" width="120" height="50" as="geometry" />
        </mxCell>
        <mxCell id="-eAwGdb72ULK-F6omRw_-16" value="Select Appropriate Details" style="ellipse;whiteSpace=wrap;html=1;" vertex="1" parent="1">
          <mxGeometry x="370" y="240" width="120" height="50" as="geometry" />
        </mxCell>
        <mxCell id="-eAwGdb72ULK-F6omRw_-17" value="Trip" style="ellipse;whiteSpace=wrap;html=1;" vertex="1" parent="1">
          <mxGeometry x="370" y="320" width="120" height="50" as="geometry" />
        </mxCell>
        <mxCell id="-eAwGdb72ULK-F6omRw_-18" value="Trails" style="ellipse;whiteSpace=wrap;html=1;" vertex="1" parent="1">
          <mxGeometry x="370" y="395" width="120" height="50" as="geometry" />
        </mxCell>
        <mxCell id="-eAwGdb72ULK-F6omRw_-20" value="Chat with Buddy" style="ellipse;whiteSpace=wrap;html=1;" vertex="1" parent="1">
          <mxGeometry x="365" y="525" width="120" height="50" as="geometry" />
        </mxCell>
        <mxCell id="-eAwGdb72ULK-F6omRw_-22" value="Share Images/Videos" style="ellipse;whiteSpace=wrap;html=1;" vertex="1" parent="1">
          <mxGeometry x="370" y="590" width="120" height="50" as="geometry" />
        </mxCell>
        <mxCell id="-eAwGdb72ULK-F6omRw_-24" value="Delete Account&amp;nbsp;" style="ellipse;whiteSpace=wrap;html=1;" vertex="1" parent="1">
          <mxGeometry x="370" y="720" width="120" height="50" as="geometry" />
        </mxCell>
        <mxCell id="-eAwGdb72ULK-F6omRw_-25" value="Log IN" style="ellipse;whiteSpace=wrap;html=1;" vertex="1" parent="1">
          <mxGeometry x="370" y="780" width="120" height="50" as="geometry" />
        </mxCell>
        <mxCell id="-eAwGdb72ULK-F6omRw_-26" value="Log Out" style="ellipse;whiteSpace=wrap;html=1;" vertex="1" parent="1">
          <mxGeometry x="370" y="840" width="120" height="50" as="geometry" />
        </mxCell>
        <mxCell id="-eAwGdb72ULK-F6omRw_-28" value="User" style="shape=umlActor;verticalLabelPosition=bottom;verticalAlign=top;html=1;outlineConnect=0;" vertex="1" parent="1">
          <mxGeometry x="80" y="400" width="50" height="80" as="geometry" />
        </mxCell>
        <mxCell id="-eAwGdb72ULK-F6omRw_-30" value="Admin" style="shape=umlActor;verticalLabelPosition=bottom;verticalAlign=top;html=1;outlineConnect=0;" vertex="1" parent="1">
          <mxGeometry x="720" y="110" width="50" height="80" as="geometry" />
        </mxCell>
        <mxCell id="-eAwGdb72ULK-F6omRw_-31" value="" style="endArrow=none;html=1;rounded=0;entryX=0;entryY=0.5;entryDx=0;entryDy=0;" edge="1" parent="1" target="-eAwGdb72ULK-F6omRw_-14">
          <mxGeometry width="50" height="50" relative="1" as="geometry">
            <mxPoint x="140" y="410" as="sourcePoint" />
            <mxPoint x="230" y="290" as="targetPoint" />
          </mxGeometry>
        </mxCell>
        <mxCell id="-eAwGdb72ULK-F6omRw_-32" value="" style="endArrow=none;html=1;rounded=0;entryX=0;entryY=0.5;entryDx=0;entryDy=0;" edge="1" parent="1" target="-eAwGdb72ULK-F6omRw_-15">
          <mxGeometry width="50" height="50" relative="1" as="geometry">
            <mxPoint x="140" y="410" as="sourcePoint" />
            <mxPoint x="360" y="200" as="targetPoint" />
          </mxGeometry>
        </mxCell>
        <mxCell id="-eAwGdb72ULK-F6omRw_-33" value="" style="endArrow=none;html=1;rounded=0;entryX=0;entryY=0.5;entryDx=0;entryDy=0;" edge="1" parent="1" target="-eAwGdb72ULK-F6omRw_-17">
          <mxGeometry width="50" height="50" relative="1" as="geometry">
            <mxPoint x="140" y="410" as="sourcePoint" />
            <mxPoint x="385" y="145" as="targetPoint" />
          </mxGeometry>
        </mxCell>
        <mxCell id="-eAwGdb72ULK-F6omRw_-34" value="" style="endArrow=none;html=1;rounded=0;entryX=0.027;entryY=0.364;entryDx=0;entryDy=0;entryPerimeter=0;" edge="1" parent="1" target="-eAwGdb72ULK-F6omRw_-16">
          <mxGeometry width="50" height="50" relative="1" as="geometry">
            <mxPoint x="140" y="410" as="sourcePoint" />
            <mxPoint x="395" y="155" as="targetPoint" />
          </mxGeometry>
        </mxCell>
        <mxCell id="-eAwGdb72ULK-F6omRw_-35" value="" style="endArrow=none;html=1;rounded=0;entryX=0;entryY=0.5;entryDx=0;entryDy=0;" edge="1" parent="1" target="-eAwGdb72ULK-F6omRw_-18">
          <mxGeometry width="50" height="50" relative="1" as="geometry">
            <mxPoint x="140" y="410" as="sourcePoint" />
            <mxPoint x="405" y="165" as="targetPoint" />
          </mxGeometry>
        </mxCell>
        <mxCell id="-eAwGdb72ULK-F6omRw_-37" value="" style="endArrow=none;html=1;rounded=0;entryX=0;entryY=0.5;entryDx=0;entryDy=0;" edge="1" parent="1" target="-eAwGdb72ULK-F6omRw_-20">
          <mxGeometry width="50" height="50" relative="1" as="geometry">
            <mxPoint x="140" y="410" as="sourcePoint" />
            <mxPoint x="390" y="440" as="targetPoint" />
          </mxGeometry>
        </mxCell>
        <mxCell id="-eAwGdb72ULK-F6omRw_-38" value="" style="endArrow=none;html=1;rounded=0;entryX=0;entryY=0.5;entryDx=0;entryDy=0;" edge="1" parent="1" target="-eAwGdb72ULK-F6omRw_-22">
          <mxGeometry width="50" height="50" relative="1" as="geometry">
            <mxPoint x="140" y="410" as="sourcePoint" />
            <mxPoint x="400" y="450" as="targetPoint" />
          </mxGeometry>
        </mxCell>
        <mxCell id="-eAwGdb72ULK-F6omRw_-39" value="" style="endArrow=none;html=1;rounded=0;entryX=0;entryY=0.5;entryDx=0;entryDy=0;" edge="1" parent="1" target="-eAwGdb72ULK-F6omRw_-24">
          <mxGeometry width="50" height="50" relative="1" as="geometry">
            <mxPoint x="140" y="410" as="sourcePoint" />
            <mxPoint x="410" y="460" as="targetPoint" />
          </mxGeometry>
        </mxCell>
        <mxCell id="-eAwGdb72ULK-F6omRw_-40" value="" style="endArrow=none;html=1;rounded=0;entryX=0;entryY=0.5;entryDx=0;entryDy=0;" edge="1" parent="1" target="-eAwGdb72ULK-F6omRw_-25">
          <mxGeometry width="50" height="50" relative="1" as="geometry">
            <mxPoint x="140" y="410" as="sourcePoint" />
            <mxPoint x="420" y="470" as="targetPoint" />
          </mxGeometry>
        </mxCell>
        <mxCell id="-eAwGdb72ULK-F6omRw_-41" value="" style="endArrow=none;html=1;rounded=0;entryX=0;entryY=0.5;entryDx=0;entryDy=0;" edge="1" parent="1" target="-eAwGdb72ULK-F6omRw_-26">
          <mxGeometry width="50" height="50" relative="1" as="geometry">
            <mxPoint x="140" y="410" as="sourcePoint" />
            <mxPoint x="380" y="785" as="targetPoint" />
          </mxGeometry>
        </mxCell>
        <mxCell id="-eAwGdb72ULK-F6omRw_-54" value="VAGA&amp;nbsp; TRIP APP" style="text;html=1;strokeColor=none;fillColor=none;align=center;verticalAlign=middle;whiteSpace=wrap;rounded=0;" vertex="1" parent="1">
          <mxGeometry x="270" y="70" width="110" height="30" as="geometry" />
        </mxCell>
        <mxCell id="-eAwGdb72ULK-F6omRw_-55" value="" style="endArrow=none;html=1;rounded=0;exitX=1;exitY=0.5;exitDx=0;exitDy=0;" edge="1" parent="1" source="-eAwGdb72ULK-F6omRw_-14">
          <mxGeometry width="50" height="50" relative="1" as="geometry">
            <mxPoint x="350" y="200" as="sourcePoint" />
            <mxPoint x="710" y="120" as="targetPoint" />
          </mxGeometry>
        </mxCell>
        <mxCell id="-eAwGdb72ULK-F6omRw_-58" value="Report User" style="ellipse;whiteSpace=wrap;html=1;" vertex="1" parent="1">
          <mxGeometry x="370" y="660" width="120" height="50" as="geometry" />
        </mxCell>
        <mxCell id="-eAwGdb72ULK-F6omRw_-59" value="" style="endArrow=none;html=1;rounded=0;entryX=0;entryY=0.5;entryDx=0;entryDy=0;" edge="1" parent="1" target="-eAwGdb72ULK-F6omRw_-58">
          <mxGeometry width="50" height="50" relative="1" as="geometry">
            <mxPoint x="140" y="410" as="sourcePoint" />
            <mxPoint x="380" y="635" as="targetPoint" />
          </mxGeometry>
        </mxCell>
        <mxCell id="-eAwGdb72ULK-F6omRw_-61" value="" style="endArrow=none;html=1;rounded=0;entryX=1;entryY=0.5;entryDx=0;entryDy=0;" edge="1" parent="1" target="-eAwGdb72ULK-F6omRw_-58">
          <mxGeometry width="50" height="50" relative="1" as="geometry">
            <mxPoint x="710" y="120" as="sourcePoint" />
            <mxPoint x="490" y="680" as="targetPoint" />
          </mxGeometry>
        </mxCell>
        <mxCell id="-eAwGdb72ULK-F6omRw_-62" value="Verification" style="text;html=1;strokeColor=none;fillColor=none;align=center;verticalAlign=middle;whiteSpace=wrap;rounded=0;rotation=0;" vertex="1" parent="1">
          <mxGeometry x="530" y="100" width="60" height="30" as="geometry" />
        </mxCell>
        <mxCell id="-eAwGdb72ULK-F6omRw_-63" value="Search / Request to join" style="text;html=1;strokeColor=none;fillColor=none;align=center;verticalAlign=middle;whiteSpace=wrap;rounded=0;rotation=-15;" vertex="1" parent="1">
          <mxGeometry x="230" y="330" width="160" height="30" as="geometry" />
        </mxCell>
        <mxCell id="-eAwGdb72ULK-F6omRw_-64" value="Search&amp;nbsp;" style="text;html=1;strokeColor=none;fillColor=none;align=center;verticalAlign=middle;whiteSpace=wrap;rounded=0;rotation=0;" vertex="1" parent="1">
          <mxGeometry x="280" y="395" width="60" height="30" as="geometry" />
        </mxCell>
        <mxCell id="-eAwGdb72ULK-F6omRw_-68" value="Follow/Unfollow User" style="ellipse;whiteSpace=wrap;html=1;" vertex="1" parent="1">
          <mxGeometry x="370" y="460" width="120" height="50" as="geometry" />
        </mxCell>
        <mxCell id="-eAwGdb72ULK-F6omRw_-69" value="" style="endArrow=none;html=1;rounded=0;entryX=0;entryY=0.5;entryDx=0;entryDy=0;" edge="1" parent="1" target="-eAwGdb72ULK-F6omRw_-68">
          <mxGeometry width="50" height="50" relative="1" as="geometry">
            <mxPoint x="140" y="410" as="sourcePoint" />
            <mxPoint x="380" y="430" as="targetPoint" />
          </mxGeometry>
        </mxCell>
        <mxCell id="-eAwGdb72ULK-F6omRw_-71" value="Create" style="text;html=1;strokeColor=none;fillColor=none;align=center;verticalAlign=middle;whiteSpace=wrap;rounded=0;rotation=0;" vertex="1" parent="1">
          <mxGeometry x="290" y="415" width="60" height="30" as="geometry" />
        </mxCell>
        <mxCell id="-eAwGdb72ULK-F6omRw_-72" value="Create" style="text;html=1;strokeColor=none;fillColor=none;align=center;verticalAlign=middle;whiteSpace=wrap;rounded=0;rotation=-15;" vertex="1" parent="1">
          <mxGeometry x="295" y="360" width="60" height="30" as="geometry" />
        </mxCell>
      </root>
    </mxGraphModel>
  </diagram>
</mxfile>
